#!OML:ASF H:\MichaelJackson\Top Level 1\Subject 1\Session 1\male.ASF
:FULLY-SPECIFIED
:DEGREES
744
root -9.74995 16.2798 30.0333 -351.436 7.52175 -0.571005
lowerback -3.0567 -1.68394 5.8219
upperback -1.50942 -2.39399 -3.3078
thorax -0.23063 -1.25761 -6.78045
lowerneck -9.81925 0.0898706 6.90441
upperneck 4.0731 -0.739057 -0.314074
head 3.03488 -0.257222 -1.36581
rclavicle 3.17559e-014 2.78299e-014
rhumerus 14.6769 -26.6416 0.626278
rradius 34.3007
rwrist -18.2957
rhand -7.4549 -10.1157
rfingers 7.12502
rthumb 18.4333 -39.2623
lclavicle 3.17559e-014 2.78299e-014
lhumerus -49.344 -39.0948 117.773
lradius 40.2733
lwrist 19.7959
lhand 41.9997 34.2623
lfingers 7.12502
lthumb 64.0307 42.9746
rfemur -23.8649 2.34515 2.71437
rtibia 38.2374
rfoot -22.9118 1.36111
rtoes -26.8697
lfemur -1.54116 -8.18466 3.1007
ltibia 6.98906
lfoot -26.8684 -8.88234
ltoes -27.6735
745
root -9.74234 16.2822 30.0276 -351.461 7.54158 -0.602636
lowerback -3.04587 -1.68235 5.81321
upperback -1.51141 -2.39109 -3.29549
thorax -0.237336 -1.2563 -6.76191
lowerneck -9.82935 0.103771 6.89205
upperneck 4.13594 -0.724471 -0.262283
head 3.05893 -0.246502 -1.34627
rclavicle -1.33186e-014 -4.77083e-015
rhumerus 14.6363 -26.495 0.643036
rradius 34.3083
rwrist -18.1962
rhand -7.77512 -9.7102
rfingers 7.12502
rthumb 18.1252 -38.8857
lclavicle -1.33186e-014 -4.77083e-015
lhumerus -49.3424 -39.0951 117.795
lradius 40.2737
lwrist 19.7956
lhand 41.9748 34.2637
lfingers 7.12502
lthumb 64.0106 43.0062
rfemur -23.7779 2.42472 2.71551
rtibia 38.0949
rfoot -22.8355 1.27619
rtoes -26.9407
lfemur -1.56776 -8.20868 3.11293
ltibia 7.02305
lfoot -26.8738 -8.89625
ltoes -27.646
746
root -9.73471 16.2848 30.0218 -351.491 7.55932 -0.628826
lowerback -3.02802 -1.68001 5.80038
upperback -1.51346 -2.38673 -3.2848
thorax -0.247703 -1.25436 -6.74241
lowerneck -9.85607 0.119787 6.89117
upperneck 4.21801 -0.709046 -0.229442
head 3.09298 -0.235377 -1.3354
rclavicle 1.56543e-014 -3.18055e-014
rhumerus 14.601 -26.3582 0.655633
rradius 34.3141
rwrist -18.0863
rhand -8.08283 -9.26508
rfingers 7.12502
rthumb 17.8291 -38.4678
lclavicle 1.56543e-014 -3.18055e-014
lhumerus -49.3516 -39.0989 117.82
lradius 40.2875
lwrist 19.7838
lhand 41.954 34.2652
lfingers 7.12502
lthumb 63.9938 43.033
rfemur -23.6869 2.49467 2.71155
rtibia 37.9532
rfoot -22.7592 1.20442
rtoes -27.0113
lfemur -1.58462 -8.23357 3.11852
ltibia 7.04893
lfoot -26.8738 -8.91259
ltoes -27.62
747
root -9.72704 16.2874 30.0161 -351.527 7.57732 -0.65153
lowerback -3.0061 -1.67677 5.78655
upperback -1.51412 -2.38096 -3.27597
thorax -0.258726 -1.25171 -6.72418
lowerneck -9.89153 0.13724 6.89213
upperneck 4.31154 -0.692468 -0.20348
head 3.13281 -0.223591 -1.32727
rclavicle -4.07509e-015 1.11319e-014
rhumerus 14.5707 -26.2476 0.660167
rradius 34.3222
rwrist -18.0076
rhand -8.37492 -8.75748
rfingers 7.12502
rthumb 17.5481 -37.9855
lclavicle -4.07509e-015 1.11319e-014
lhumerus -49.3699 -39.1154 117.853
lradius 40.3083
lwrist 19.7731
lhand 41.9322 34.2605
lfingers 7.12502
lthumb 63.9762 43.0546
rfemur -23.5889 2.55281 2.70456
rtibia 37.8102
rfoot -22.6829 1.14974
rtoes -27.0723
lfemur -1.58993 -8.26117 3.12035
ltibia 7.06207
lfoot -26.8658 -8.93297
ltoes -27.5889
748
root -9.71939 16.2901 30.0104 -351.563 7.5931 -0.666968
lowerback -2.98386 -1.67119 5.76746
upperback -1.51348 -2.37191 -3.27094
thorax -0.268002 -1.24728 -6.70691
lowerneck -9.94157 0.154378 6.89721
upperneck 4.41983 -0.67791 -0.184289
head 3.18059 -0.212574 -1.32251
rclavicle 1.4561e-014 -8.74653e-015
rhumerus 14.5331 -26.1349 0.66668
rradius 34.3351
rwrist -17.9334
rhand -8.67116 -8.2521
rfingers 7.12502
rthumb 17.263 -37.5054
lclavicle 1.4561e-014 -8.74653e-015
lhumerus -49.3935 -39.1515 117.893
lradius 40.3271
lwrist 19.7729
lhand 41.9049 34.25
lfingers 7.12502
lthumb 63.9542 43.0772
rfemur -23.4876 2.60183 2.68995
rtibia 37.6641
rfoot -22.6059 1.1097
rtoes -27.1263
lfemur -1.58575 -8.28851 3.11429
ltibia 7.06186
lfoot -26.8502 -8.95737
ltoes -27.5551
749
root -9.71174 16.2931 30.0048 -351.599 7.61058 -0.677405
lowerback -2.96319 -1.66383 5.74616
upperback -1.5129 -2.36049 -3.26827
thorax -0.276098 -1.24162 -6.69093
lowerneck -9.99399 0.171367 6.89927
upperneck 4.5321 -0.663605 -0.163397
head 3.23028 -0.201537 -1.31668
rclavicle -3.75206e-014 1.19271e-014
rhumerus 14.4967 -26.0351 0.666267
rradius 34.345
rwrist -17.855
rhand -8.9681 -7.75007
rfingers 7.12502
rthumb 16.9771 -37.0281
lclavicle -3.75206e-014 1.19271e-014
lhumerus -49.4212 -39.2009 117.94
lradius 40.3452
lwrist 19.7839
lhand 41.8754 34.2266
lfingers 7.12502
lthumb 63.9304 43.0894
rfemur -23.3827 2.64095 2.67025
rtibia 37.5139
rfoot -22.5285 1.08211
rtoes -27.1699
lfemur -1.57675 -8.31796 3.10405
ltibia 7.04952
lfoot -26.8264 -8.98552
ltoes -27.5174
750
root -9.70402 16.2962 29.9992 -351.633 7.62808 -0.685254
lowerback -2.94596 -1.65361 5.72644
upperback -1.51251 -2.34546 -3.26807
thorax -0.282081 -1.2341 -6.67853
lowerneck -10.052 0.186887 6.89643
upperneck 4.65068 -0.651669 -0.136654
head 3.28323 -0.191325 -1.30823
rclavicle 1.23246e-014 1.19271e-014
rhumerus 14.4574 -25.9408 0.660748
rradius 34.3529
rwrist -17.7714
rhand -9.26508 -7.25114
rfingers 7.12502
rthumb 16.6913 -36.5535
lclavicle 1.23246e-014 1.19271e-014
lhumerus -49.4495 -39.2625 117.989
lradius 40.359
lwrist 19.8096
lhand 41.8477 34.2015
lfingers 7.12502
lthumb 63.908 43.0976
rfemur -23.2779 2.67394 2.64724
rtibia 37.3585
rfoot -22.4494 1.06518
rtoes -27.2046
lfemur -1.56454 -8.34672 3.09176
ltibia 7.02482
lfoot -26.7956 -9.01619
ltoes -27.4796
751
root -9.69625 16.2996 29.9937 -351.663 7.64501 -0.69306
lowerback -2.93326 -1.63944 5.71001
upperback -1.51195 -2.32545 -3.26967
thorax -0.284804 -1.22399 -6.67005
lowerneck -10.1173 0.200882 6.89104
upperneck 4.7744 -0.642459 -0.106145
head 3.33935 -0.182173 -1.29829
rclavicle 2.41523e-014 0
rhumerus 14.4102 -25.8537 0.657038
rradius 34.3612
rwrist -17.7044
rhand -9.55568 -6.74666
rfingers 7.12502
rthumb 16.4115 -36.0724
lclavicle 2.41523e-014 0
lhumerus -49.4732 -39.3397 118.044
lradius 40.3608
lwrist 19.8535
lhand 41.8156 34.161
lfingers 7.12502
lthumb 63.8821 43.0957
rfemur -23.1733 2.70467 2.62394
rtibia 37.1975
rfoot -22.3686 1.05401
rtoes -27.2316
lfemur -1.55019 -8.3737 3.07996
ltibia 6.99034
lfoot -26.7589 -9.04669
ltoes -27.4434
752
root -9.68842 16.3031 29.9882 -351.69 7.66104 -0.704538
lowerback -2.92543 -1.61959 5.70105
upperback -1.51101 -2.29826 -3.27244
thorax -0.283664 -1.21018 -6.66719
lowerneck -10.2015 0.209391 6.88863
upperneck 4.90986 -0.64261 -0.078527
head 3.40305 -0.177337 -1.29067
rclavicle 5.03919e-014 6.36111e-015
rhumerus 14.3426 -25.7579 0.668758
rradius 34.3754
rwrist -17.6606
rhand -9.84518 -6.24707
rfingers 7.12502
rthumb 16.1327 -35.5956
lclavicle 5.03919e-014 6.36111e-015
lhumerus -49.4945 -39.4303 118.101
lradius 40.3587
lwrist 19.9082
lhand 41.7875 34.127
lfingers 7.12502
lthumb 63.8594 43.0953
rfemur -23.0703 2.7388 2.6044
rtibia 37.0306
rfoot -22.2841 1.03867
rtoes -27.2648
lfemur -1.53802 -8.39764 3.07197
ltibia 6.95315
lfoot -26.7204 -9.07353
ltoes -27.4137
753
root -9.68049 16.307 29.9829 -351.714 7.67485 -0.719399
lowerback -2.92157 -1.59646 5.6963
upperback -1.51031 -2.26699 -3.27521
thorax -0.280082 -1.19428 -6.66682
lowerneck -10.2857 0.216147 6.88332
upperneck 5.04554 -0.64538 -0.0431384
head 3.46688 -0.17347 -1.28005
rclavicle -6.01324e-015 1.19271e-014
rhumerus 14.2665 -25.6604 0.685276
rradius 34.3955
rwrist -17.6504
rhand -10.139 -5.75451
rfingers 7.12502
rthumb 15.8498 -35.1258
lclavicle -6.01324e-015 1.19271e-014
lhumerus -49.5142 -39.5237 118.159
lradius 40.3563
lwrist 19.966
lhand 41.7618 34.108
lfingers 7.12502
lthumb 63.8386 43.1071
rfemur -22.9683 2.77966 2.58827
rtibia 36.8586
rfoot -22.1968 1.0157
rtoes -27.3043
lfemur -1.52824 -8.418 3.06601
ltibia 6.91853
lfoot -26.6833 -9.09613
ltoes -27.3891
754
root -9.67239 16.3109 29.9776 -351.736 7.68414 -0.740909
lowerback -2.92059 -1.57 5.69833
upperback -1.51083 -2.23157 -3.2758
thorax -0.275679 -1.17632 -6.66806
lowerneck -10.364 0.221341 6.87636
upperneck 5.17628 -0.649809 -0.00385496
head 3.52788 -0.170384 -1.26778
rclavicle 1.02374e-014 -5.56597e-015
rhumerus 14.1919 -25.5675 0.698797
rradius 34.417
rwrist -17.6636
rhand -10.4361 -5.26989
rfingers 7.12502
rthumb 15.5637 -34.6636
lclavicle 1.02374e-014 -5.56597e-015
lhumerus -49.5299 -39.6098 118.214
lradius 40.3538
lwrist 20.0122
lhand 41.7417 34.0945
lfingers 7.12502
lthumb 63.8223 43.1177
rfemur -22.8692 2.82683 2.57877
rtibia 36.6825
rfoot -22.1065 0.985995
rtoes -27.3578
lfemur -1.52034 -8.43232 3.0644
ltibia 6.88923
lfoot -26.6492 -9.11457
ltoes -27.3676
755
root -9.66427 16.3149 29.9722 -351.756 7.68818 -0.769379
lowerback -2.91909 -1.54155 5.70461
upperback -1.51316 -2.19356 -3.27321
thorax -0.273085 -1.1572 -6.66827
lowerneck -10.4356 0.226496 6.86677
upperneck 5.30122 -0.653778 0.0408382
head 3.5857 -0.167007 -1.25303
rclavicle 3.17559e-014 3.4191e-014
rhumerus 14.1251 -25.4848 0.702793
rradius 34.4374
rwrist -17.6934
rhand -10.7341 -4.78873
rfingers 7.12502
rthumb 15.2767 -34.2046
lclavicle 3.17559e-014 3.4191e-014
lhumerus -49.5387 -39.6894 118.27
lradius 40.3482
lwrist 20.0441
lhand 41.7254 34.0875
lfingers 7.12502
lthumb 63.8091 43.1302
rfemur -22.7739 2.88551 2.57657
rtibia 36.5044
rfoot -22.0136 0.944658
rtoes -27.4217
lfemur -1.51573 -8.44016 3.06729
ltibia 6.8702
lfoot -26.6209 -9.12738
ltoes -27.3498
